<svg width="60" height="60" viewBox="0 0 60 60" fill="none" xmlns="http://www.w3.org/2000/svg">
<path d="M36.325 3.625L33.625 6.325L37.625 10.325C38.175 10.95 38.45 11.675 38.45 12.5C38.45 13.325 38.175 14.1 37.625 14.65L28.75 23.675L31.25 26.375L40.325 17.35C41.65 15.875 42.3 14.25 42.3 12.5C42.3 10.75 41.65 9.1 40.325 7.625L36.325 3.625ZM26.375 8.675L23.675 11.375L25.2 12.775C25.75 13.325 26.025 14.075 26.025 15C26.025 15.925 25.75 16.675 25.2 17.225L23.675 18.625L26.375 21.325L27.775 19.8C29.1 18.325 29.775 16.725 29.775 15C29.775 13.2 29.1 11.575 27.775 10.075L26.375 8.675ZM52.5 12.65C50.775 12.65 49.175 13.325 47.7 14.65L33.625 28.75L36.325 31.25L50.275 17.35C50.9 16.725 51.65 16.4 52.5 16.4C53.35 16.4 54.1 16.725 54.725 17.35L56.25 18.875L58.825 16.175L57.425 14.65C55.95 13.325 54.3 12.65 52.5 12.65ZM17.5 20L5 55L40 42.5L17.5 20ZM47.5 27.65C45.75 27.65 44.15 28.325 42.65 29.65L38.675 33.625L41.375 36.325L45.35 32.35C45.975 31.725 46.675 31.4 47.5 31.4C48.325 31.4 49.075 31.725 49.7 32.35L53.75 36.325L56.375 33.75L52.375 29.65C50.9 28.325 49.25 27.65 47.5 27.65Z" fill="#1E2F4F"/>
</svg>
