<svg width="40" height="40" viewBox="0 0 40 40" fill="none" xmlns="http://www.w3.org/2000/svg">
<path d="M40 36.1905V40H27.2727V36.1905H31.7455L20 6.87619C19.6545 5.98095 19.0909 5.25714 18.2909 4.68571C17.4909 4.11429 16.6182 3.80952 15.6545 3.80952C14.3636 3.80952 13.2364 4.32381 12.2909 5.31429C11.3455 6.30476 10.9091 7.46667 10.9091 8.8381V15.2381H12.7273C16.7455 15.2381 20 18.6476 20 22.8571V40H12.7273C13.8364 38.4 14.5455 36.4381 14.5455 34.2857C14.5455 29.0286 10.4727 24.7619 5.45455 24.7619C4.16364 24.7619 2.92727 25.0476 1.81818 25.5619V15.2381H7.27273V8.8381C7.27273 7.2381 7.69091 5.71429 8.41818 4.41905C9.16364 3.08571 10.1636 2.01905 11.4545 1.2C12.7273 0.4 14.1273 0 15.6545 0C17.3636 0 18.9091 0.495238 20.2909 1.46667C21.6727 2.4381 22.7273 3.75238 23.4 5.35238L35.7455 36.1905H40ZM10.9091 34.2857C10.9091 37.4476 8.47273 40 5.45455 40C2.43636 40 0 37.4476 0 34.2857C0 31.1238 2.43636 28.5714 5.45455 28.5714C8.47273 28.5714 10.9091 31.1238 10.9091 34.2857ZM7.27273 34.2857C7.27273 33.2381 6.45455 32.381 5.45455 32.381C4.45455 32.381 3.63636 33.2381 3.63636 34.2857C3.63636 35.3333 4.45455 36.1905 5.45455 36.1905C6.45455 36.1905 7.27273 35.3333 7.27273 34.2857Z" fill="#0067A3"/>
</svg>
