<svg width="40" height="40" viewBox="0 0 40 40" fill="none" xmlns="http://www.w3.org/2000/svg">
<rect width="40" height="40" fill="white"/>
<path d="M26.6666 0H13.3333C11.4999 0 9.99992 1.5 9.99992 3.33333V30C9.99992 31.8333 11.4999 33.3333 13.3333 33.3333H33.3333C35.1666 33.3333 36.6666 31.8333 36.6666 30V10L26.6666 0ZM33.3333 30H13.3333V3.33333H24.9999V11.6667H33.3333V30ZM6.66659 6.66667V36.6667H33.3333V40H6.66659C4.83325 40 3.33325 38.5 3.33325 36.6667V6.66667H6.66659ZM16.6666 16.6667V20H29.9999V16.6667H16.6666ZM16.6666 23.3333V26.6667H24.9999V23.3333H16.6666Z" fill="#0067A3"/>
</svg>
