<svg width="40" height="40" viewBox="0 0 40 40" fill="none" xmlns="http://www.w3.org/2000/svg">
<path d="M19.9999 32C15.8333 32 12.1499 29.8667 9.99992 26.6667C10.0499 23.3333 16.6666 21.5 19.9999 21.5C23.3333 21.5 29.9499 23.3333 29.9999 26.6667C27.8499 29.8667 24.1666 32 19.9999 32ZM19.9999 8.33333C21.326 8.33333 22.5978 8.86011 23.5355 9.79779C24.4731 10.7355 24.9999 12.0072 24.9999 13.3333C24.9999 14.6594 24.4731 15.9312 23.5355 16.8689C22.5978 17.8065 21.326 18.3333 19.9999 18.3333C18.6738 18.3333 17.4021 17.8065 16.4644 16.8689C15.5267 15.9312 14.9999 14.6594 14.9999 13.3333C14.9999 12.0072 15.5267 10.7355 16.4644 9.79779C17.4021 8.86011 18.6738 8.33333 19.9999 8.33333ZM19.9999 3.33333C17.8112 3.33333 15.644 3.76442 13.6219 4.602C11.5998 5.43958 9.76245 6.66724 8.21481 8.21488C5.0892 11.3405 3.33325 15.5797 3.33325 20C3.33325 24.4203 5.0892 28.6595 8.21481 31.7851C9.76245 33.3328 11.5998 34.5604 13.6219 35.398C15.644 36.2356 17.8112 36.6667 19.9999 36.6667C24.4202 36.6667 28.6594 34.9107 31.785 31.7851C34.9106 28.6595 36.6666 24.4203 36.6666 20C36.6666 10.7833 29.1666 3.33333 19.9999 3.33333Z" fill="#0067A3"/>
</svg>
