<svg width="33" height="31" viewBox="0 0 33 31" fill="none" xmlns="http://www.w3.org/2000/svg">
<path d="M19.45 20.9958L29.45 30.9958L32.9667 27.3958L22.9667 17.3958L19.45 20.9958ZM25.65 12.3292C25 12.3292 24.3 12.2458 23.75 12.0125L4.76667 30.9125L1.25 27.3958L13.6 15.0625L10.65 12.0958L9.45 13.2625L7.03333 10.9125V15.6792L5.86667 16.8458L0 10.9125L1.16667 9.74583H5.85L3.51667 7.39583L9.45 1.4625C11.4 -0.4875 14.5333 -0.4875 16.4833 1.4625L12.9667 5.0625L15.3167 7.39583L14.1333 8.57917L17.1167 11.5458L20.15 8.4125C19.9167 7.8625 19.8167 7.1625 19.8167 6.54583C19.8167 3.2625 22.4167 0.679167 25.65 0.679167C26.6333 0.679167 27.5 0.9125 28.2833 1.37917L23.8333 5.82917L26.3333 8.32917L30.7833 3.87917C31.25 4.6625 31.4833 5.49583 31.4833 6.54583C31.4833 9.74583 28.9 12.3292 25.65 12.3292Z" fill="#0067A3"/>
</svg>
