<svg width="90" height="80" viewBox="0 0 90 80" fill="none" xmlns="http://www.w3.org/2000/svg">
<path d="M57.2727 30H79.3227L65.7 10H57.2727V30ZM67.5 72.5C69.0955 72.5 70.5273 71.85 71.7545 70.35C72.9818 68.85 73.6364 67.1 73.6364 65C73.6364 63.05 72.9818 61.3 71.7545 59.8C70.5273 58.3 69.0955 57.5 67.5 57.5C65.7818 57.5 64.35 58.3 63.1227 59.8C61.8955 61.3 61.3636 63.05 61.3636 65C61.3636 67.1 61.8955 68.85 63.1227 70.35C64.35 71.85 65.7818 72.5 67.5 72.5ZM20.4545 72.5C22.2545 72.5 23.7273 71.85 24.8727 70.35C26.0182 68.85 26.5909 67.1 26.5909 65C26.5909 63.05 26.0182 61.3 24.8727 59.8C23.7273 58.3 22.2545 57.5 20.4545 57.5C18.6545 57.5 17.1818 58.3 16.0364 59.8C14.8909 61.3 14.3182 63.05 14.3182 65C14.3182 67.1 14.8909 68.85 16.0364 70.35C17.1818 71.85 18.6545 72.5 20.4545 72.5ZM69.5455 0L90 30V65H79.7727C79.7727 69.15 78.5045 72.65 76.05 75.65C73.6364 78.6 70.7727 80 67.5 80C64.1045 80 61.2409 78.6 58.8273 75.65C56.3727 72.65 55.2273 69.15 55.2273 65H32.7273C32.7273 69.15 31.5 72.65 29.0864 75.65C26.5909 78.6 23.7682 80 20.4545 80C17.1409 80 14.3182 78.6 11.8227 75.65C9.40909 72.65 8.18182 69.15 8.18182 65H0V45H33.5045L8.18182 20.55V35H0V5H4.09091L49.0909 35.3V0H69.5455Z" fill="#0067A3"/>
</svg>
