<svg width="34" height="30" viewBox="0 0 34 30" fill="none" xmlns="http://www.w3.org/2000/svg">
<path d="M10.2667 0L7.91667 2.35L12.2333 6.66667H3.33333C1.48333 6.66667 0 8.15 0 10V26.6667C0 28.5167 1.48333 30 3.33333 30H30C31.85 30 33.3333 28.5167 33.3333 26.6667V10C33.3333 8.15 31.85 6.66667 30 6.66667H21.1L25.4167 2.35L23.0667 0L16.6667 6.4L10.2667 0ZM3.33333 10H25V26.6667H3.33333V10ZM29.1667 10C29.6087 10 30.0326 10.1756 30.3452 10.4882C30.6577 10.8007 30.8333 11.2246 30.8333 11.6667C30.8333 12.1087 30.6577 12.5326 30.3452 12.8452C30.0326 13.1577 29.6087 13.3333 29.1667 13.3333C28.7246 13.3333 28.3007 13.1577 27.9882 12.8452C27.6756 12.5326 27.5 12.1087 27.5 11.6667C27.5 11.2246 27.6756 10.8007 27.9882 10.4882C28.3007 10.1756 28.7246 10 29.1667 10ZM29.1667 15C29.6087 15 30.0326 15.1756 30.3452 15.4882C30.6577 15.8007 30.8333 16.2246 30.8333 16.6667C30.8333 17.1087 30.6577 17.5326 30.3452 17.8452C30.0326 18.1577 29.6087 18.3333 29.1667 18.3333C28.7246 18.3333 28.3007 18.1577 27.9882 17.8452C27.6756 17.5326 27.5 17.1087 27.5 16.6667C27.5 16.2246 27.6756 15.8007 27.9882 15.4882C28.3007 15.1756 28.7246 15 29.1667 15Z" fill="black"/>
</svg>
