<svg width="45" height="48" viewBox="0 0 45 48" fill="none" xmlns="http://www.w3.org/2000/svg">
<g clip-path="url(#clip0_72_173)" filter="url(#filter0_d_72_173)">
<path d="M7.33334 20C7.33334 15.5797 9.08929 11.3405 12.2149 8.21487C15.3405 5.08926 19.5797 3.33331 24 3.33331C26.1887 3.33331 28.356 3.76441 30.3781 4.60199C32.4002 5.43957 34.2375 6.66722 35.7851 8.21487C37.3328 9.76251 38.5604 11.5998 39.398 13.6219C40.2356 15.644 40.6667 17.8113 40.6667 20C40.6667 24.4203 38.9107 28.6595 35.7851 31.7851C32.6595 34.9107 28.4203 36.6666 24 36.6666C21.8113 36.6666 19.644 36.2355 17.622 35.398C15.5999 34.5604 13.7625 33.3327 12.2149 31.7851C9.08929 28.6595 7.33334 24.4203 7.33334 20ZM34 18.3333H20.6667L26.5 12.5L24.1333 10.1333L14.2667 20L24.1333 29.8666L26.5 27.5L20.6667 21.6666H34V18.3333Z" fill="#EEF2FF"/>
</g>
<defs>
<filter id="filter0_d_72_173" x="-3" y="0" width="48" height="48" filterUnits="userSpaceOnUse" color-interpolation-filters="sRGB">
<feFlood flood-opacity="0" result="BackgroundImageFix"/>
<feColorMatrix in="SourceAlpha" type="matrix" values="0 0 0 0 0 0 0 0 0 0 0 0 0 0 0 0 0 0 127 0" result="hardAlpha"/>
<feOffset dy="4"/>
<feGaussianBlur stdDeviation="2"/>
<feComposite in2="hardAlpha" operator="out"/>
<feColorMatrix type="matrix" values="0 0 0 0 0 0 0 0 0 0 0 0 0 0 0 0 0 0 0.25 0"/>
<feBlend mode="normal" in2="BackgroundImageFix" result="effect1_dropShadow_72_173"/>
<feBlend mode="normal" in="SourceGraphic" in2="effect1_dropShadow_72_173" result="shape"/>
</filter>
<clipPath id="clip0_72_173">
<rect width="40" height="40" fill="white" transform="translate(1)"/>
</clipPath>
</defs>
</svg>
