<svg width="29" height="28" viewBox="0 0 29 28" fill="none" xmlns="http://www.w3.org/2000/svg">
<path d="M19.6294 12.838C22.4569 15.022 22.4569 18.578 19.6294 20.762C16.8019 22.946 12.1981 22.946 9.37063 20.762L19.6294 12.838ZM3.625 0H25.375C26.3364 0 27.2584 0.294999 27.9383 0.820101C28.6181 1.3452 29 2.05739 29 2.8V25.2C29 25.9426 28.6181 26.6548 27.9383 27.1799C27.2584 27.705 26.3364 28 25.375 28H3.625C2.66359 28 1.74156 27.705 1.06174 27.1799C0.381918 26.6548 0 25.9426 0 25.2V2.8C0 2.05739 0.381918 1.3452 1.06174 0.820101C1.74156 0.294999 2.66359 0 3.625 0ZM5.4375 2.8C4.9568 2.8 4.49578 2.9475 4.15587 3.21005C3.81596 3.4726 3.625 3.8287 3.625 4.2C3.625 4.5713 3.81596 4.9274 4.15587 5.18995C4.49578 5.4525 4.9568 5.6 5.4375 5.6C5.9182 5.6 6.37922 5.4525 6.71913 5.18995C7.05904 4.9274 7.25 4.5713 7.25 4.2C7.25 3.8287 7.05904 3.4726 6.71913 3.21005C6.37922 2.9475 5.9182 2.8 5.4375 2.8ZM10.875 2.8C10.3943 2.8 9.93328 2.9475 9.59337 3.21005C9.25346 3.4726 9.0625 3.8287 9.0625 4.2C9.0625 4.5713 9.25346 4.9274 9.59337 5.18995C9.93328 5.4525 10.3943 5.6 10.875 5.6C11.3557 5.6 11.8167 5.4525 12.1566 5.18995C12.4965 4.9274 12.6875 4.5713 12.6875 4.2C12.6875 3.8287 12.4965 3.4726 12.1566 3.21005C11.8167 2.9475 11.3557 2.8 10.875 2.8ZM14.5 8.4C11.6158 8.4 8.84967 9.285 6.81021 10.8603C4.77076 12.4356 3.625 14.5722 3.625 16.8C3.625 19.0278 4.77076 21.1644 6.81021 22.7397C8.84967 24.315 11.6158 25.2 14.5 25.2C17.3842 25.2 20.1503 24.315 22.1898 22.7397C24.2292 21.1644 25.375 19.0278 25.375 16.8C25.375 14.5722 24.2292 12.4356 22.1898 10.8603C20.1503 9.285 17.3842 8.4 14.5 8.4Z" fill="black"/>
</svg>
